# Blender v2.78 (sub 0) OBJ File: ''
# www.blender.org
mtllib rabbit.mtl
o Sphere
v 0.000000 0.053663 -0.160055
v 0.000000 0.122320 -0.184778
v 0.054120 0.102170 -0.184786
v 0.000000 0.180685 -0.141417
v 0.000000 0.219273 -0.076433
v 0.130656 0.170948 -0.076514
v 0.100000 0.143439 -0.141426
v 0.000000 0.232934 0.000141
v 0.000000 0.219485 0.076653
v 0.130656 0.171183 0.076565
v 0.141421 0.180668 0.000043
v 0.000000 0.180913 0.141469
v 0.000000 0.123091 0.184720
v 0.054120 0.103087 0.184684
v 0.100000 0.143951 0.141403
v 0.000000 0.054821 0.199822
v 0.068883 0.054794 0.184598
v 0.127279 0.054718 0.141243
v 0.127279 0.053799 -0.141505
v 0.076537 0.053662 -0.184834
v 0.180000 0.054324 -0.000154
v 0.166298 0.053975 -0.076644
v 0.166298 0.054547 0.076367
v 0.100000 0.013712 -0.141554
v 0.054120 0.040943 -0.184851
v 0.141421 -0.010336 -0.000259
v 0.130656 -0.004264 -0.076742
v 0.100000 0.014743 0.141171
v 0.130656 -0.003680 0.076266
v 0.054120 0.042113 0.184575
v 0.000000 0.028778 0.184551
v 0.000000 0.027579 -0.184870
v 0.000000 -0.036543 -0.076782
v 0.000000 -0.010974 -0.141590
v 0.000000 -0.035913 0.076216
v 0.000000 -0.045243 -0.000310
v 0.000000 -0.009899 0.141127
v -0.130656 -0.004264 -0.076742
v -0.100000 0.013713 -0.141554
v -0.130656 -0.003680 0.076266
v -0.141421 -0.010333 -0.000260
v -0.054120 0.042113 0.184575
v -0.100000 0.014743 0.141171
v -0.054120 0.040943 -0.184851
v -0.127279 0.053792 -0.141503
v -0.076537 0.053663 -0.184835
v -0.180000 0.054321 -0.000153
v -0.166298 0.053974 -0.076644
v -0.127279 0.054718 0.141243
v -0.166298 0.054542 0.076368
v -0.068883 0.054794 0.184598
v -0.141421 0.180670 0.000040
v -0.130656 0.170950 -0.076515
v -0.100000 0.143951 0.141403
v -0.130656 0.171179 0.076565
v -0.054120 0.103087 0.184684
v -0.054120 0.102168 -0.184785
v -0.100000 0.143439 -0.141426
v 0.000000 0.019115 -0.220002
v 0.022967 0.027180 -0.203315
v -0.008773 0.027180 -0.193001
v 0.039075 0.048966 -0.191612
v 0.045935 0.044726 -0.220002
v -0.028389 0.027180 -0.220002
v -0.008773 0.027180 -0.247002
v 0.022967 0.027180 -0.236688
v 0.051357 0.073116 -0.203315
v -0.014925 0.048966 -0.174066
v 0.014195 0.044726 -0.176314
v 0.000000 0.073116 -0.166001
v -0.048299 0.048966 -0.220002
v -0.037162 0.044726 -0.193001
v -0.051357 0.073116 -0.203315
v -0.014925 0.048966 -0.265937
v -0.037162 0.044726 -0.247002
v -0.031740 0.073116 -0.263689
v 0.039075 0.048966 -0.248391
v 0.014195 0.044726 -0.263689
v 0.031740 0.073116 -0.263689
v 0.031740 0.073116 -0.176314
v -0.031740 0.073116 -0.176314
v -0.051357 0.073116 -0.236688
v 0.000000 0.073116 -0.274002
v 0.051357 0.073116 -0.236688
v 0.014925 0.097266 -0.174066
v 0.037162 0.101506 -0.193001
v 0.008773 0.119052 -0.193001
v -0.039075 0.097266 -0.191612
v -0.014195 0.101506 -0.176314
v -0.022967 0.119052 -0.203315
v -0.039075 0.097266 -0.248391
v -0.045935 0.101506 -0.220002
v -0.022967 0.119052 -0.236688
v 0.014925 0.097266 -0.265937
v -0.014195 0.101506 -0.263689
v 0.008773 0.119052 -0.247002
v 0.048299 0.097266 -0.220002
v 0.037162 0.101506 -0.247002
v 0.028389 0.119052 -0.220002
v 0.000000 0.127117 -0.220002
v -0.105618 0.284528 0.118362
v -0.100182 0.286705 0.111484
v -0.093074 0.295928 0.120951
v -0.086551 0.164431 0.077935
v -0.058855 0.171772 0.068447
v -0.071988 0.221201 0.075176
v -0.095215 0.214798 0.082858
v -0.070661 0.216366 0.071449
v -0.084578 0.271771 0.090890
v -0.062356 0.275279 0.099813
v -0.041627 0.223693 0.081640
v -0.093877 0.301766 0.113517
v -0.096243 0.306377 0.126629
v -0.081851 0.303378 0.118499
v -0.110339 0.254800 0.107493
v -0.100899 0.259950 0.095556
v -0.083121 0.266127 0.091106
v -0.054245 0.154705 0.063116
v -0.019624 0.163924 0.075010
v -0.107134 0.210364 0.099574
v -0.090561 0.290223 0.109270
v -0.029233 0.226768 0.101993
v -0.005284 0.167785 0.103690
v -0.076218 0.300387 0.126158
v -0.052553 0.272907 0.115069
v -0.098023 0.161424 0.100869
v -0.088865 0.145529 0.074977
v -0.103206 0.141770 0.103643
v -0.076371 0.291834 0.121055
v -0.056297 0.268444 0.111640
v -0.112405 0.204809 0.101160
v -0.116210 0.256825 0.110243
v -0.036525 0.229013 0.100242
v -0.110669 0.291781 0.122985
v -0.019686 0.182235 0.100906
v -0.031158 0.179147 0.077962
v -0.105904 0.297369 0.116284
v -0.106800 0.264050 0.096453
v -0.065344 0.268933 0.098244
v -0.080939 0.291512 0.113256
v -0.099696 0.208363 0.081051
v -0.048760 0.227062 0.083328
v 0.109431 0.284528 0.118362
v 0.096887 0.295928 0.120951
v 0.103995 0.286705 0.111484
v 0.090364 0.164431 0.077935
v 0.099028 0.214798 0.082858
v 0.075801 0.221201 0.075176
v 0.062668 0.171772 0.068447
v 0.074474 0.216366 0.071449
v 0.045440 0.223693 0.081640
v 0.066169 0.275279 0.099813
v 0.088391 0.271771 0.090890
v 0.097690 0.301766 0.113517
v 0.085664 0.303378 0.118500
v 0.100056 0.306377 0.126629
v 0.114152 0.254800 0.107493
v 0.104712 0.259950 0.095556
v 0.086934 0.266127 0.091106
v 0.058058 0.154705 0.063116
v 0.023437 0.163924 0.075010
v 0.110947 0.210364 0.099574
v 0.094374 0.290223 0.109270
v 0.009097 0.167785 0.103690
v 0.033046 0.226768 0.101993
v 0.056366 0.272907 0.115069
v 0.080031 0.300387 0.126158
v 0.101836 0.161424 0.100869
v 0.092678 0.145529 0.074977
v 0.107019 0.141770 0.103643
v 0.060110 0.268444 0.111640
v 0.080184 0.291834 0.121055
v 0.116218 0.204809 0.101160
v 0.120023 0.256825 0.110243
v 0.040338 0.229013 0.100242
v 0.114482 0.291781 0.122985
v 0.034971 0.179147 0.077962
v 0.023499 0.182235 0.100906
v 0.110613 0.264050 0.096453
v 0.109717 0.297369 0.116284
v 0.084752 0.291512 0.113256
v 0.069157 0.268933 0.098244
v 0.103509 0.208363 0.081051
v 0.052573 0.227062 0.083328
vt 0.2644 0.4489
vt 0.2790 0.4768
vt 0.2651 0.4839
vt 0.2875 0.5121
vt 0.2875 0.5529
vt 0.2571 0.5320
vt 0.2623 0.5101
vt 0.2778 0.5923
vt 0.2588 0.6176
vt 0.2414 0.5674
vt 0.2500 0.5507
vt 0.1358 0.4044
vt 0.1498 0.1360
vt 0.2507 0.1270
vt 0.3006 0.2900
vt 0.2370 0.6259
vt 0.2308 0.5812
vt 0.2164 0.6179
vt 0.1986 0.5974
vt 0.2174 0.5915
vt 0.2124 0.5748
vt 0.2214 0.5575
vt 0.2478 0.4982
vt 0.2552 0.4784
vt 0.2351 0.5286
vt 0.2413 0.5142
vt 0.2287 0.5426
vt 0.2436 0.4825
vt 0.2547 0.4686
vt 0.2257 0.5145
vt 0.2340 0.4976
vt 0.2123 0.5532
vt 0.2183 0.5329
vt 0.2071 0.5759
vt 0.1937 0.5838
vt 0.2562 0.4429
vt 0.2177 0.4477
vt 0.2386 0.4382
vt 0.1884 0.5138
vt 0.1984 0.4739
vt 0.1875 0.5532
vt 0.1875 0.5109
vt 0.1866 0.5503
vt 0.1567 0.5312
vt 0.1627 0.5109
vt 0.1766 0.5902
vt 0.1573 0.6164
vt 0.1410 0.5665
vt 0.1493 0.5496
vt 0.1364 0.6259
vt 0.1188 0.6212
vt 0.1203 0.5955
vt 0.1314 0.5816
vt 0.1813 0.4802
vt 0.1679 0.4882
vt 0.1106 0.6151
vt 0.1764 0.4667
vt 0.1536 0.5066
vt 0.1626 0.4893
vt 0.1399 0.5355
vt 0.1463 0.5215
vt 0.1272 0.5659
vt 0.1337 0.5499
vt 0.1198 0.5857
vt 0.1250 0.5134
vt 0.1336 0.4967
vt 0.1127 0.5540
vt 0.1179 0.5321
vt 0.1099 0.5802
vt 0.1576 0.4726
vt 0.1442 0.4829
vt 0.1586 0.4462
vt 0.1162 0.4465
vt 0.1380 0.4382
vt 0.0875 0.5112
vt 0.0972 0.4718
vt 0.1255 0.3032
vt 0.1762 0.1485
vt 0.2735 0.1626
vt 0.2827 0.4224
vt 0.0875 0.5520
vt 0.0960 0.5873
vt 0.7125 0.5551
vt 0.7321 0.5661
vt 0.7125 0.5825
vt 0.7476 0.5710
vt 0.7470 0.5569
vt 0.8113 0.5702
vt 0.8113 0.5453
vt 0.8307 0.5605
vt 0.8312 0.5851
vt 0.7161 0.5279
vt 0.7332 0.5466
vt 0.7602 0.5647
vt 0.7269 0.6058
vt 0.7388 0.5858
vt 0.7542 0.6073
vt 0.8459 0.5526
vt 0.8347 0.5407
vt 0.8525 0.5392
vt 0.8556 0.5899
vt 0.8497 0.5691
vt 0.8740 0.5731
vt 0.7483 0.5433
vt 0.7417 0.5291
vt 0.7592 0.5341
vt 0.7593 0.5823
vt 0.8229 0.5233
vt 0.8351 0.5015
vt 0.8439 0.5237
vt 0.8614 0.5537
vt 0.7347 0.5076
vt 0.7540 0.4882
vt 0.7571 0.5147
vt 0.7601 0.5497
vt 0.7783 0.5943
vt 0.7762 0.5720
vt 0.8008 0.5785
vt 0.8597 0.5265
vt 0.8582 0.5098
vt 0.8750 0.5209
vt 0.8780 0.5518
vt 0.8690 0.5382
vt 0.8879 0.5366
vt 0.7731 0.5251
vt 0.7811 0.5031
vt 0.7959 0.5304
vt 0.7717 0.5567
vt 0.7743 0.5421
vt 0.7882 0.5555
vt 0.8112 0.5532
vt 0.9125 0.5345
vt 0.8956 0.5163
vt 0.8984 0.5589
vt 0.8794 0.4974
vt 0.8562 0.4882
vt 0.2651 0.4917
vt 0.2634 0.4798
vt 0.2842 0.4764
vt 0.1195 0.4414
vt 0.1344 0.4046
vt 0.1928 0.4326
vt 0.1801 0.4629
vt 0.1172 0.5346
vt 0.1646 0.5366
vt 0.1655 0.5597
vt 0.1172 0.5658
vt 0.1962 0.5379
vt 0.2148 0.5386
vt 0.1975 0.5496
vt 0.2260 0.4976
vt 0.2289 0.4764
vt 0.2375 0.4540
vt 0.0580 0.2822
vt 0.1172 0.2846
vt 0.1172 0.3158
vt 0.0580 0.3182
vt 0.1726 0.4900
vt 0.2669 0.4681
vt 0.0580 0.5682
vt 0.1201 0.5929
vt 0.0599 0.5983
vt 0.2037 0.5596
vt 0.1710 0.5798
vt 0.1116 0.4734
vt 0.7200 0.3752
vt 0.7445 0.3789
vt 0.7366 0.4109
vt 0.7112 0.4143
vt 0.8616 0.4089
vt 0.8517 0.4117
vt 0.8308 0.4017
vt 0.8354 0.3963
vt 0.7962 0.4591
vt 0.7994 0.4519
vt 0.8308 0.4443
vt 0.8354 0.4497
vt 0.7497 0.4640
vt 0.7622 0.4558
vt 0.7994 0.3941
vt 0.7962 0.3869
vt 0.8616 0.4371
vt 0.8517 0.4343
vt 0.8590 0.4230
vt 0.8707 0.4230
vt 0.7855 0.2593
vt 0.7988 0.2812
vt 0.7788 0.3073
vt 0.7605 0.2906
vt 0.7594 0.3421
vt 0.7386 0.3321
vt 0.7622 0.3902
vt 0.7497 0.3821
vt 0.1745 0.4940
vt 0.2054 0.5168
vt 0.1985 0.5263
vt 0.1674 0.5136
vt 0.2496 0.4334
vt 0.2738 0.4581
vt 0.2643 0.4178
vt 0.2842 0.4520
vt 0.1249 0.4768
vt 0.1198 0.5035
vt 0.2085 0.4038
vt 0.2249 0.3809
vt 0.1538 0.3698
vt 0.1738 0.3437
vt 0.0653 0.2165
vt 0.1249 0.2268
vt 0.1198 0.2535
vt 0.0610 0.2463
vt 0.2651 0.4917
vt 0.2842 0.4764
vt 0.2634 0.4798
vt 0.1195 0.4414
vt 0.1801 0.4629
vt 0.1928 0.4326
vt 0.1344 0.4046
vt 0.1172 0.5346
vt 0.1172 0.5658
vt 0.1655 0.5597
vt 0.1646 0.5366
vt 0.1962 0.5379
vt 0.1975 0.5496
vt 0.2148 0.5386
vt 0.2260 0.4976
vt 0.2289 0.4764
vt 0.2375 0.4540
vt 0.0580 0.2822
vt 0.0580 0.3182
vt 0.1172 0.3158
vt 0.1172 0.2846
vt 0.1726 0.4900
vt 0.2669 0.4681
vt 0.0580 0.5682
vt 0.0599 0.5983
vt 0.1201 0.5929
vt 0.1710 0.5798
vt 0.2037 0.5596
vt 0.1116 0.4734
vt 0.7200 0.3752
vt 0.7112 0.4143
vt 0.7366 0.4109
vt 0.7445 0.3789
vt 0.8616 0.4089
vt 0.8354 0.3963
vt 0.8308 0.4017
vt 0.8517 0.4117
vt 0.7962 0.4591
vt 0.8354 0.4497
vt 0.8308 0.4443
vt 0.7994 0.4519
vt 0.7497 0.4640
vt 0.7622 0.4558
vt 0.7962 0.3869
vt 0.7994 0.3941
vt 0.8616 0.4371
vt 0.8707 0.4230
vt 0.8590 0.4230
vt 0.8517 0.4343
vt 0.7855 0.2593
vt 0.7605 0.2906
vt 0.7788 0.3073
vt 0.7988 0.2812
vt 0.7386 0.3321
vt 0.7594 0.3421
vt 0.7497 0.3821
vt 0.7622 0.3902
vt 0.1745 0.4940
vt 0.1674 0.5136
vt 0.1985 0.5263
vt 0.2054 0.5168
vt 0.2738 0.4581
vt 0.2496 0.4334
vt 0.2842 0.4520
vt 0.2643 0.4178
vt 0.1249 0.4768
vt 0.1198 0.5035
vt 0.2085 0.4038
vt 0.2249 0.3809
vt 0.1538 0.3698
vt 0.1738 0.3437
vt 0.0653 0.2165
vt 0.0610 0.2463
vt 0.1198 0.2535
vt 0.1249 0.2268
vn -0.0000 0.2108 -0.9775
vn -0.0000 0.2469 -0.9690
vn 0.1823 0.1821 -0.9662
vn 0.0000 0.7605 -0.6493
vn 0.0000 0.9414 -0.3373
vn 0.6816 0.6425 -0.3501
vn 0.5449 0.5212 -0.6568
vn 0.0000 1.0000 -0.0012
vn -0.0000 0.9420 0.3357
vn 0.6820 0.6428 0.3488
vn 0.7282 0.6854 -0.0010
vn -0.0000 0.7616 0.6481
vn -0.0000 0.4543 0.8908
vn 0.3225 0.3077 0.8952
vn 0.5440 0.5151 0.6623
vn -0.0000 -0.1623 0.9867
vn 0.4601 -0.1212 0.8796
vn 0.7502 -0.1210 0.6501
vn 0.7552 -0.1261 -0.6432
vn 0.3533 -0.1116 -0.9288
vn 0.9930 -0.1177 0.0005
vn 0.9333 -0.1182 -0.3390
vn 0.9330 -0.1181 0.3399
vn 0.4509 -0.6944 -0.5609
vn 0.0559 -0.1330 -0.9895
vn 0.6047 -0.7964 0.0028
vn 0.5704 -0.7695 -0.2872
vn 0.4549 -0.6794 0.5758
vn 0.5693 -0.7687 0.2916
vn 0.2678 -0.4931 0.8277
vn 0.0000 -0.6479 0.7617
vn -0.0000 -0.1496 -0.9887
vn -0.0000 -0.9714 -0.2376
vn -0.0000 -0.8587 -0.5125
vn -0.0000 -0.9698 0.2438
vn -0.0000 -1.0000 0.0038
vn 0.0000 -0.8573 0.5148
vn -0.5704 -0.7695 -0.2872
vn -0.4509 -0.6944 -0.5609
vn -0.5692 -0.7687 0.2916
vn -0.6047 -0.7964 0.0028
vn -0.2678 -0.4931 0.8277
vn -0.4549 -0.6794 0.5758
vn -0.0559 -0.1330 -0.9895
vn -0.7552 -0.1262 -0.6432
vn -0.3533 -0.1116 -0.9288
vn -0.9930 -0.1177 0.0005
vn -0.9333 -0.1182 -0.3390
vn -0.7502 -0.1210 0.6501
vn -0.9330 -0.1181 0.3399
vn -0.4601 -0.1212 0.8796
vn -0.7282 0.6854 -0.0010
vn -0.6816 0.6425 -0.3501
vn -0.5440 0.5152 0.6623
vn -0.6820 0.6428 0.3488
vn -0.3225 0.3077 0.8952
vn -0.1823 0.1821 -0.9662
vn -0.5449 0.5212 -0.6568
vn -0.0000 -1.0000 -0.0000
vn 0.4253 -0.8507 0.3090
vn -0.1625 -0.8507 0.5000
vn 0.7236 -0.4472 0.5257
vn 0.8507 -0.5257 -0.0000
vn -0.5257 -0.8506 -0.0000
vn -0.1625 -0.8507 -0.5000
vn 0.4253 -0.8507 -0.3090
vn 0.9511 -0.0000 0.3090
vn -0.2764 -0.4472 0.8506
vn 0.2629 -0.5257 0.8090
vn -0.0000 0.0000 1.0000
vn -0.8944 -0.4472 -0.0000
vn -0.6882 -0.5257 0.5000
vn -0.9511 -0.0000 0.3090
vn -0.2764 -0.4472 -0.8506
vn -0.6882 -0.5257 -0.5000
vn -0.5878 -0.0000 -0.8090
vn 0.7236 -0.4472 -0.5257
vn 0.2629 -0.5257 -0.8090
vn 0.5878 0.0000 -0.8090
vn 0.5878 -0.0000 0.8090
vn -0.5878 -0.0000 0.8090
vn -0.9511 -0.0000 -0.3090
vn -0.0000 -0.0000 -1.0000
vn 0.9511 -0.0000 -0.3090
vn 0.2764 0.4472 0.8506
vn 0.6882 0.5257 0.5000
vn 0.1625 0.8507 0.5000
vn -0.7236 0.4472 0.5257
vn -0.2629 0.5257 0.8090
vn -0.4253 0.8507 0.3090
vn -0.7236 0.4472 -0.5257
vn -0.8507 0.5257 -0.0000
vn -0.4253 0.8507 -0.3090
vn 0.2764 0.4472 -0.8506
vn -0.2629 0.5257 -0.8090
vn 0.1625 0.8507 -0.5000
vn 0.8944 0.4472 -0.0000
vn 0.6882 0.5257 -0.5000
vn 0.5257 0.8506 -0.0000
vn 0.0000 1.0000 -0.0000
vn 0.4860 -0.4616 0.7421
vn 0.5921 -0.5860 0.5532
vn 0.1010 -0.6734 0.7324
vn 0.6389 -0.0797 0.7651
vn 0.0530 -0.2070 0.9769
vn 0.0404 -0.2232 0.9739
vn 0.6103 -0.0491 0.7907
vn -0.0396 0.2213 -0.9744
vn -0.0626 0.4546 -0.8885
vn 0.5005 0.5796 -0.6431
vn 0.5446 0.3704 -0.7525
vn -0.1381 0.7645 -0.6296
vn -0.2366 0.6959 0.6780
vn 0.3479 0.8755 -0.3352
vn 0.6049 -0.2105 0.7680
vn 0.6064 -0.2789 0.7446
vn 0.0627 -0.4560 0.8878
vn 0.2588 -0.8867 -0.3831
vn 0.3695 -0.8017 -0.4699
vn 0.6237 -0.0143 0.7816
vn 0.1266 -0.7334 0.6679
vn 0.7320 0.3480 0.5858
vn 0.6386 -0.6344 0.4355
vn 0.5212 0.3958 0.7561
vn 0.7417 0.1951 0.6418
vn 0.6515 0.0097 0.7586
vn 0.0990 -0.8721 -0.4792
vn -0.2289 -0.8745 0.4277
vn -0.3105 -0.6699 0.6745
vn -0.4806 -0.5328 0.6965
vn -0.8269 -0.0464 0.5604
vn -0.8227 -0.1806 0.5390
vn -0.5627 -0.3737 0.7373
vn -0.7658 0.0688 0.6394
vn -0.5774 -0.3299 0.7468
vn -0.5150 -0.3926 0.7620
vn -0.6613 0.6185 -0.4245
vn -0.6393 0.2710 -0.7197
vn -0.4713 -0.5708 0.6724
vn -0.3248 -0.8197 0.4718
vn -0.6275 0.0444 -0.7774
vn -0.5289 -0.3656 0.7659
vn -0.4860 -0.4616 0.7421
vn -0.1010 -0.6734 0.7324
vn -0.5921 -0.5860 0.5532
vn -0.6389 -0.0797 0.7651
vn -0.6103 -0.0491 0.7907
vn -0.0404 -0.2232 0.9739
vn -0.0530 -0.2070 0.9769
vn 0.0396 0.2213 -0.9744
vn -0.5446 0.3704 -0.7525
vn -0.5005 0.5796 -0.6431
vn 0.0626 0.4546 -0.8885
vn 0.1381 0.7645 -0.6296
vn -0.3479 0.8755 -0.3352
vn 0.2366 0.6959 0.6780
vn -0.6049 -0.2105 0.7680
vn -0.6064 -0.2789 0.7446
vn -0.0627 -0.4560 0.8878
vn -0.2588 -0.8867 -0.3831
vn -0.3695 -0.8017 -0.4699
vn -0.6237 -0.0143 0.7816
vn -0.1266 -0.7334 0.6679
vn -0.6386 -0.6344 0.4355
vn -0.7320 0.3480 0.5858
vn -0.7417 0.1951 0.6418
vn -0.5212 0.3958 0.7561
vn -0.6515 0.0097 0.7586
vn -0.0990 -0.8721 -0.4792
vn 0.2289 -0.8745 0.4277
vn 0.4806 -0.5328 0.6965
vn 0.3105 -0.6699 0.6745
vn 0.8269 -0.0464 0.5604
vn 0.8227 -0.1806 0.5390
vn 0.5627 -0.3737 0.7373
vn 0.7658 0.0688 0.6394
vn 0.5150 -0.3926 0.7620
vn 0.5774 -0.3299 0.7468
vn 0.6393 0.2710 -0.7197
vn 0.6613 0.6184 -0.4245
vn 0.3248 -0.8197 0.4718
vn 0.4713 -0.5708 0.6724
vn 0.6275 0.0444 -0.7774
vn 0.5289 -0.3656 0.7659
usemtl Material.001
s 1
f 1/1/1 2/2/2 3/3/3
f 4/4/4 5/5/5 6/6/6 7/7/7
f 8/8/8 9/9/9 10/10/10 11/11/11
f 12/12/12 13/13/13 14/14/14 15/15/15
f 2/2/2 4/4/4 7/7/7 3/3/3
f 5/5/5 8/8/8 11/11/11 6/6/6
f 9/9/9 12/16/12 15/17/15 10/10/10
f 13/18/13 16/19/16 14/20/14
f 15/17/15 14/20/14 17/21/17 18/22/18
f 3/3/3 7/7/7 19/23/19 20/24/20
f 6/6/6 11/11/11 21/25/21 22/26/22
f 10/10/10 15/17/15 18/22/18 23/27/23
f 14/20/14 16/19/16 17/21/17
f 1/1/1 3/3/3 20/24/20
f 7/7/7 6/6/6 22/26/22 19/23/19
f 11/11/11 10/10/10 23/27/23 21/25/21
f 20/24/20 19/23/19 24/28/24 25/29/25
f 22/26/22 21/25/21 26/30/26 27/31/27
f 23/27/23 18/22/18 28/32/28 29/33/29
f 17/21/17 16/19/16 30/34/30
f 1/1/1 20/24/20 25/29/25
f 19/23/19 22/26/22 27/31/27 24/28/24
f 21/25/21 23/27/23 29/33/29 26/30/26
f 18/22/18 17/21/17 30/34/30 28/32/28
f 30/34/30 16/19/16 31/35/31
f 1/1/1 25/29/25 32/36/32
f 24/28/24 27/31/27 33/37/33 34/38/34
f 26/30/26 29/33/29 35/39/35 36/40/36
f 28/32/28 30/34/30 31/35/31 37/41/37
f 25/29/25 24/28/24 34/38/34 32/36/32
f 27/31/27 26/30/26 36/40/36 33/37/33
f 29/33/29 28/32/28 37/41/37 35/39/35
f 34/42/34 33/43/33 38/44/38 39/45/39
f 36/46/36 35/47/35 40/48/40 41/49/41
f 37/50/37 31/51/31 42/52/42 43/53/43
f 32/54/32 34/42/34 39/45/39 44/55/44
f 33/43/33 36/46/36 41/49/41 38/44/38
f 35/47/35 37/50/37 43/53/43 40/48/40
f 31/51/31 16/56/16 42/52/42
f 1/57/1 32/54/32 44/55/44
f 44/55/44 39/45/39 45/58/45 46/59/46
f 38/44/38 41/49/41 47/60/47 48/61/48
f 40/48/40 43/53/43 49/62/49 50/63/50
f 42/52/42 16/56/16 51/64/51
f 1/57/1 44/55/44 46/59/46
f 39/45/39 38/44/38 48/61/48 45/58/45
f 41/49/41 40/48/40 50/63/50 47/60/47
f 43/53/43 42/52/42 51/64/51 49/62/49
f 48/61/48 47/60/47 52/65/52 53/66/53
f 50/63/50 49/62/49 54/67/54 55/68/55
f 51/64/51 16/56/16 56/69/56
f 1/57/1 46/59/46 57/70/57
f 45/58/45 48/61/48 53/66/53 58/71/58
f 47/60/47 50/63/50 55/68/55 52/65/52
f 49/62/49 51/64/51 56/69/56 54/67/54
f 46/59/46 45/58/45 58/71/58 57/70/57
f 1/57/1 57/70/57 2/72/2
f 58/71/58 53/66/53 5/73/5 4/74/4
f 52/65/52 55/68/55 9/75/9 8/76/8
f 54/77/54 56/78/56 13/79/13 12/80/12
f 57/70/57 58/71/58 4/74/4 2/72/2
f 53/66/53 52/65/52 8/76/8 5/73/5
f 55/68/55 54/67/54 12/81/12 9/75/9
f 56/69/56 16/56/16 13/82/13
f 59/83/59 60/84/60 61/85/61
f 62/86/62 60/84/60 63/87/63
f 59/88/59 61/89/61 64/90/64
f 59/88/59 64/90/64 65/91/65
f 59/83/59 65/92/65 66/93/66
f 62/86/62 63/87/63 67/94/67
f 68/95/68 69/96/69 70/97/70
f 71/98/71 72/99/72 73/100/73
f 74/101/74 75/102/75 76/103/76
f 77/104/77 78/105/78 79/106/79
f 62/86/62 67/94/67 80/107/80
f 68/108/68 70/109/70 81/110/81
f 71/98/71 73/100/73 82/111/82
f 74/112/74 76/113/76 83/114/83
f 77/104/77 79/106/79 84/115/84
f 85/116/85 86/117/86 87/118/87
f 88/119/88 89/120/89 90/121/90
f 91/122/91 92/123/92 93/124/93
f 94/125/94 95/126/95 96/127/96
f 97/128/97 98/129/98 99/130/99
f 99/130/99 96/127/96 100/131/100
f 99/130/99 98/129/98 96/127/96
f 98/129/98 94/125/94 96/127/96
f 96/132/96 93/124/93 100/133/100
f 96/132/96 95/134/95 93/124/93
f 95/134/95 91/122/91 93/124/93
f 93/124/93 90/121/90 100/133/100
f 93/124/93 92/123/92 90/121/90
f 92/123/92 88/119/88 90/121/90
f 90/121/90 87/135/87 100/133/100
f 90/121/90 89/120/89 87/135/87
f 89/120/89 85/136/85 87/135/87
f 87/118/87 99/130/99 100/131/100
f 87/118/87 86/117/86 99/130/99
f 86/117/86 97/128/97 99/130/99
f 84/115/84 98/129/98 97/128/97
f 84/115/84 79/106/79 98/129/98
f 79/106/79 94/125/94 98/129/98
f 83/114/83 95/126/95 94/125/94
f 83/114/83 76/113/76 95/126/95
f 76/103/76 91/122/91 95/134/95
f 82/111/82 92/123/92 91/122/91
f 82/111/82 73/100/73 92/123/92
f 73/100/73 88/119/88 92/123/92
f 81/110/81 89/120/89 88/119/88
f 81/110/81 70/109/70 89/120/89
f 70/109/70 85/136/85 89/120/89
f 80/107/80 86/117/86 85/116/85
f 80/107/80 67/94/67 86/117/86
f 67/94/67 97/128/97 86/117/86
f 79/106/79 83/114/83 94/125/94
f 79/106/79 78/105/78 83/114/83
f 78/105/78 74/112/74 83/114/83
f 76/103/76 82/111/82 91/122/91
f 76/103/76 75/102/75 82/111/82
f 75/102/75 71/98/71 82/111/82
f 73/100/73 81/110/81 88/119/88
f 73/100/73 72/99/72 81/110/81
f 72/99/72 68/108/68 81/110/81
f 70/97/70 80/107/80 85/116/85
f 70/97/70 69/96/69 80/107/80
f 69/96/69 62/86/62 80/107/80
f 67/94/67 84/115/84 97/128/97
f 67/94/67 63/87/63 84/115/84
f 63/87/63 77/104/77 84/115/84
f 66/93/66 78/105/78 77/104/77
f 66/93/66 65/92/65 78/105/78
f 65/92/65 74/112/74 78/105/78
f 65/91/65 75/102/75 74/101/74
f 65/91/65 64/90/64 75/102/75
f 64/90/64 71/98/71 75/102/75
f 64/90/64 72/99/72 71/98/71
f 64/90/64 61/89/61 72/99/72
f 61/89/61 68/108/68 72/99/72
f 63/87/63 66/93/66 77/104/77
f 63/87/63 60/84/60 66/93/66
f 60/84/60 59/83/59 66/93/66
f 61/85/61 69/96/69 68/95/68
f 61/85/61 60/84/60 69/96/69
f 60/84/60 62/86/62 69/96/69
f 101/137/101 102/138/102 103/139/103
f 104/140/104 105/141/105 106/142/106 107/143/107
f 108/144/108 109/145/109 110/146/110 111/147/111
f 112/148/112 113/149/113 114/150/114
f 115/151/115 116/152/116 102/138/102 101/137/101
f 107/143/107 106/142/106 117/153/117 116/152/116
f 118/154/118 108/155/108 111/156/111 119/157/119
f 109/145/109 112/148/112 114/150/114 110/146/110
f 120/158/120 107/143/107 116/152/116 115/151/115
f 102/138/102 121/159/121 103/139/103
f 119/160/119 111/147/111 122/161/122 123/162/123
f 110/146/110 114/150/114 124/163/124 125/164/125
f 126/165/126 104/140/104 107/143/107 120/158/120
f 116/152/116 117/153/117 121/159/121 102/138/102
f 111/147/111 110/146/110 125/164/125 122/161/122
f 114/150/114 113/149/113 124/163/124
f 127/166/127 104/167/104 126/168/126 128/169/128
f 124/170/124 129/171/129 130/172/130 125/173/125
f 131/174/131 120/175/120 115/176/115 132/177/132
f 128/178/128 126/179/126 120/175/120 131/174/131
f 125/173/125 130/172/130 133/180/133 122/181/122
f 134/182/134 101/183/101 103/184/103 113/185/113
f 132/177/132 115/176/115 101/183/101 134/182/134
f 123/186/123 135/187/135 136/188/136 119/189/119
f 113/185/113 103/184/103 129/171/129 124/170/124
f 119/189/119 136/188/136 105/190/105 118/191/118
f 122/181/122 133/180/133 135/192/135 123/193/123
f 118/191/118 105/190/105 104/167/104 127/166/127
f 132/194/132 134/195/134 137/196/137 138/197/138
f 117/153/117 139/198/139 140/199/140 121/159/121
f 139/198/139 130/200/130 129/201/129 140/199/140
f 131/202/131 132/194/132 138/197/138 141/203/141
f 134/195/134 113/149/113 137/196/137
f 142/204/142 133/205/133 130/200/130 139/198/139
f 136/206/136 135/207/135 133/205/133 142/204/142
f 128/208/128 131/209/131 141/210/141 127/211/127
f 106/142/106 142/204/142 139/198/139 117/153/117
f 105/141/105 136/206/136 142/204/142 106/142/106
f 141/203/141 138/197/138 109/145/109 108/144/108
f 137/196/137 113/149/113 112/148/112
f 140/199/140 129/201/129 103/139/103
f 121/159/121 140/199/140 103/139/103
f 127/211/127 141/210/141 108/155/108 118/154/118
f 138/197/138 137/196/137 112/148/112 109/145/109
f 143/212/143 144/213/144 145/214/145
f 146/215/146 147/216/147 148/217/148 149/218/149
f 150/219/150 151/220/151 152/221/152 153/222/153
f 154/223/154 155/224/155 156/225/156
f 157/226/157 143/212/143 145/214/145 158/227/158
f 147/216/147 158/227/158 159/228/159 148/217/148
f 160/229/160 161/230/161 151/231/151 150/232/150
f 153/222/153 152/221/152 155/224/155 154/223/154
f 162/233/162 157/226/157 158/227/158 147/216/147
f 145/214/145 144/213/144 163/234/163
f 161/235/161 164/236/164 165/237/165 151/220/151
f 152/221/152 166/238/166 167/239/167 155/224/155
f 168/240/168 162/233/162 147/216/147 146/215/146
f 158/227/158 145/214/145 163/234/163 159/228/159
f 151/220/151 165/237/165 166/238/166 152/221/152
f 155/224/155 167/239/167 156/225/156
f 169/241/169 170/242/170 168/243/168 146/244/146
f 167/245/167 166/246/166 171/247/171 172/248/172
f 173/249/173 174/250/174 157/251/157 162/252/162
f 170/253/170 173/249/173 162/252/162 168/254/168
f 166/246/166 165/255/165 175/256/175 171/247/171
f 176/257/176 156/258/156 144/259/144 143/260/143
f 174/250/174 176/257/176 143/260/143 157/251/157
f 164/261/164 161/262/161 177/263/177 178/264/178
f 156/258/156 167/245/167 172/248/172 144/259/144
f 161/262/161 160/265/160 149/266/149 177/263/177
f 165/255/165 164/267/164 178/268/178 175/256/175
f 160/265/160 169/241/169 146/244/146 149/266/149
f 174/269/174 179/270/179 180/271/180 176/272/176
f 159/228/159 163/234/163 181/273/181 182/274/182
f 182/274/182 181/273/181 172/275/172 171/276/171
f 173/277/173 183/278/183 179/270/179 174/269/174
f 176/272/176 180/271/180 156/225/156
f 184/279/184 182/274/182 171/276/171 175/280/175
f 177/281/177 184/279/184 175/280/175 178/282/178
f 170/283/170 169/284/169 183/285/183 173/286/173
f 148/217/148 159/228/159 182/274/182 184/279/184
f 149/218/149 148/217/148 184/279/184 177/281/177
f 183/278/183 150/219/150 153/222/153 179/270/179
f 180/271/180 154/223/154 156/225/156
f 181/273/181 144/213/144 172/275/172
f 163/234/163 144/213/144 181/273/181
f 169/284/169 160/229/160 150/232/150 183/285/183
f 179/270/179 153/222/153 154/223/154 180/271/180
